<?xml version="1.0" standalone="no"?>
<!DOCTYPE svg PUBLIC "-//W3C//DTD SVG 20010904//EN"
 "http://www.w3.org/TR/2001/REC-SVG-20010904/DTD/svg10.dtd">
<svg version="1.0" xmlns="http://www.w3.org/2000/svg"
 width="872.000000pt" height="872.000000pt" viewBox="0 0 872.000000 872.000000"
 preserveAspectRatio="xMidYMid meet">
<metadata>
Created by potrace 1.11, written by Peter Selinger 2001-2013
</metadata>
<g transform="translate(0.000000,872.000000) scale(0.100000,-0.100000)"
fill="#000000" stroke="none">
<path d="M4009 8666 c-2 -3 -16 -7 -31 -10 -15 -2 -62 -14 -105 -26 -43 -12
-85 -23 -93 -25 -8 -2 -64 -18 -125 -35 -60 -17 -117 -33 -126 -35 -10 -2 -68
-18 -130 -35 -63 -18 -123 -34 -134 -36 -26 -7 -37 -10 -55 -17 -8 -3 -76 -22
-150 -42 -74 -20 -146 -40 -160 -45 -14 -5 -59 -18 -100 -29 -41 -11 -92 -25
-114 -31 -21 -7 -46 -13 -55 -15 -9 -2 -47 -13 -86 -25 -72 -22 -76 -23 -135
-39 -19 -5 -60 -17 -90 -26 -30 -9 -65 -18 -77 -21 -12 -2 -35 -9 -50 -15 -16
-6 -35 -12 -43 -14 -62 -13 -281 -80 -314 -96 -22 -10 -57 -39 -76 -64 -234
-305 -440 -506 -651 -636 -30 -19 -64 -40 -75 -47 -10 -7 -33 -19 -51 -27
-200 -92 -220 -104 -249 -141 -56 -73 -55 -49 -49 -865 7 -921 12 -1333 20
-1764 8 -428 11 -476 30 -565 5 -25 11 -57 21 -114 3 -16 7 -32 9 -36 2 -4 7
-22 10 -41 3 -19 11 -52 17 -74 5 -22 12 -51 15 -65 2 -14 8 -38 13 -55 6 -16
24 -77 41 -135 17 -58 34 -114 39 -125 5 -11 16 -40 24 -65 16 -51 62 -175 75
-205 33 -75 51 -117 72 -170 13 -33 26 -62 29 -65 4 -3 12 -21 20 -40 27 -68
206 -409 220 -420 4 -3 13 -20 21 -37 8 -18 16 -33 19 -33 3 0 17 -21 30 -47
14 -26 33 -56 43 -67 9 -11 17 -24 17 -28 0 -5 9 -18 20 -30 11 -12 20 -28 20
-35 0 -7 4 -13 8 -13 4 0 16 -15 27 -32 10 -18 23 -37 27 -43 8 -9 66 -89 106
-144 9 -13 22 -28 27 -35 6 -6 31 -38 57 -71 25 -33 56 -72 69 -86 13 -14 49
-55 79 -90 118 -136 333 -352 453 -454 69 -59 173 -146 182 -153 40 -30 103
-80 120 -95 11 -10 32 -25 48 -33 15 -8 27 -19 27 -24 0 -6 4 -10 10 -10 11 0
113 -71 118 -82 2 -5 7 -8 12 -8 5 0 41 -22 82 -48 225 -148 543 -317 793
-422 55 -23 114 -48 132 -56 17 -8 34 -14 38 -14 4 0 21 -6 38 -14 48 -21 147
-55 147 -50 0 3 -28 19 -62 35 -35 17 -76 38 -93 48 -16 10 -63 35 -102 56
-40 21 -73 42 -73 47 0 4 -9 8 -20 8 -11 0 -20 5 -20 10 0 6 -5 10 -11 10 -6
0 -31 13 -56 30 -24 16 -46 30 -49 30 -3 0 -32 18 -64 40 -32 22 -64 40 -69
40 -6 0 -11 4 -11 8 0 5 -10 14 -22 21 -86 44 -465 331 -617 466 -149 132
-318 299 -436 429 -44 49 -87 96 -95 105 -26 28 -175 214 -221 276 -24 33 -47
62 -50 65 -3 3 -14 20 -24 38 -11 17 -23 32 -27 32 -4 0 -8 4 -8 9 0 5 -25 45
-55 89 -30 44 -55 85 -55 90 0 6 -4 12 -8 14 -9 4 -108 164 -136 223 -11 22
-23 42 -26 45 -4 3 -19 30 -34 60 -14 30 -31 62 -36 70 -30 46 -197 419 -215
480 -4 14 -11 30 -15 35 -4 6 -36 93 -69 195 -80 241 -75 224 -115 381 -31
122 -42 172 -51 234 -2 11 -4 20 -5 20 -1 0 -4 14 -6 30 -3 17 -9 53 -14 80
-25 137 -26 142 -15 860 2 176 7 631 10 1010 9 1059 7 987 34 1026 13 19 53
52 90 73 83 48 202 126 219 143 7 7 16 13 20 13 4 0 30 20 57 45 28 24 53 45
56 45 12 0 187 167 269 256 58 63 93 104 165 195 39 50 50 58 107 74 35 9 81
23 103 30 49 16 218 69 225 70 24 6 114 32 205 62 61 19 117 37 125 38 8 2 47
13 85 25 39 12 77 23 85 25 8 2 60 18 115 35 55 18 105 33 110 34 6 2 17 5 25
9 8 3 56 17 105 32 50 14 109 33 133 42 23 8 48 16 55 17 6 2 19 5 27 8 8 3
83 27 165 53 447 139 449 140 463 170 12 25 10 37 -8 95 -6 19 -13 44 -15 55
-13 57 -53 168 -68 185 -15 18 -66 28 -78 16z"/>
<path d="M4594 8655 c-12 -8 -25 -29 -29 -47 -10 -43 -11 -46 -29 -95 -8 -24
-13 -43 -10 -43 2 0 0 -9 -6 -21 -12 -20 -16 -38 -27 -96 -4 -26 0 -36 22 -57
15 -14 30 -24 34 -23 6 1 129 -37 381 -120 58 -19 112 -36 120 -38 8 -2 15 -4
15 -5 0 -1 8 -3 17 -5 10 -2 52 -14 95 -28 43 -14 146 -46 228 -72 83 -26 166
-52 185 -58 19 -6 40 -12 45 -13 6 -1 71 -21 145 -44 74 -23 140 -43 145 -44
6 -2 28 -8 50 -14 22 -6 42 -11 45 -11 3 1 23 -6 45 -14 44 -17 204 -67 220
-68 6 -1 21 -6 35 -11 14 -5 32 -11 40 -14 8 -2 63 -18 123 -35 l107 -32 84
-106 c74 -94 248 -278 348 -368 70 -62 235 -181 338 -243 124 -75 137 -85 158
-125 13 -26 16 -95 18 -465 3 -493 13 -1414 19 -1810 7 -380 7 -438 0 -484 -3
-23 -8 -54 -10 -71 -2 -16 -4 -30 -5 -30 -1 0 -3 -15 -6 -34 -2 -19 -7 -46
-10 -60 -3 -14 -7 -39 -10 -56 -3 -16 -9 -46 -14 -65 -5 -19 -12 -50 -15 -69
-3 -19 -8 -38 -11 -42 -3 -5 -7 -21 -9 -36 -6 -39 -39 -157 -82 -293 -20 -63
-38 -119 -39 -125 -3 -16 -98 -263 -129 -335 -55 -131 -177 -384 -187 -388 -5
-2 -8 -12 -8 -23 0 -10 -4 -19 -10 -19 -5 0 -10 -5 -10 -11 0 -15 -180 -323
-191 -327 -5 -2 -9 -10 -9 -17 0 -8 -6 -20 -13 -27 -8 -7 -20 -24 -27 -38 -7
-13 -17 -29 -22 -34 -5 -6 -35 -48 -66 -92 -31 -45 -66 -94 -77 -109 -31 -44
-174 -224 -193 -244 -9 -10 -42 -47 -72 -82 -134 -155 -366 -386 -496 -494
-26 -22 -52 -45 -58 -50 -6 -6 -47 -40 -91 -75 -44 -36 -82 -67 -85 -70 -3 -3
-64 -49 -136 -102 -149 -110 -305 -213 -479 -316 -66 -40 -125 -75 -131 -79
-13 -10 -50 -30 -176 -96 -54 -28 -96 -52 -94 -54 1 -2 23 4 47 13 24 9 49 17
54 18 6 2 21 8 35 14 14 6 54 22 90 36 36 14 79 32 95 40 17 9 33 16 37 16 16
0 338 157 438 214 25 14 56 31 70 38 14 7 49 27 78 45 29 18 55 33 57 33 6 0
327 212 347 230 7 5 40 30 73 55 33 25 69 52 80 61 11 8 35 27 54 42 268 212
570 517 794 802 68 87 73 93 131 170 43 58 216 317 216 324 0 3 12 24 28 48
41 65 49 79 74 128 13 25 26 47 29 50 3 3 23 39 43 80 21 41 42 82 47 90 5 8
27 56 50 105 22 50 52 114 67 144 14 30 25 61 25 68 0 7 4 13 9 13 4 0 8 5 8
12 0 6 12 41 26 77 28 68 113 305 119 331 2 8 13 47 25 85 40 137 90 346 85
356 -4 5 -2 9 2 9 5 0 10 10 11 23 1 12 10 68 21 124 13 71 19 159 21 290 6
458 9 668 9 668 2 0 12 1145 15 1620 2 369 0 478 -10 508 -22 63 -61 104 -132
138 -197 93 -365 192 -443 260 -13 12 -41 35 -63 52 -81 67 -253 246 -328 343
-13 16 -26 34 -31 39 -4 6 -25 34 -46 63 -21 28 -49 60 -62 71 -24 18 -121 56
-169 65 -14 3 -40 10 -57 15 -18 6 -48 16 -65 22 -18 5 -40 12 -48 14 -13 2
-268 75 -601 171 -47 13 -97 27 -110 29 -13 3 -35 9 -49 15 -24 9 -250 73
-320 90 -19 5 -100 27 -180 49 -80 23 -154 43 -165 45 -11 3 -20 5 -20 6 0 1
-7 3 -15 5 -8 2 -42 11 -75 20 -33 9 -67 18 -75 20 -8 2 -15 4 -15 5 0 1 -10
3 -23 6 -12 2 -71 17 -130 34 -122 34 -139 36 -168 15z"/>
<path d="M3517 5764 c-1 -1 -22 -4 -47 -7 -47 -7 -76 -12 -125 -24 -16 -4 -34
-8 -40 -9 -5 0 -19 -4 -30 -9 -11 -4 -49 -19 -85 -33 -35 -14 -86 -38 -113
-54 -26 -15 -52 -28 -57 -28 -4 0 -10 -3 -12 -7 -1 -5 -28 -27 -58 -49 -54
-40 -120 -104 -157 -152 -10 -13 -28 -35 -41 -50 -35 -42 -117 -210 -137 -283
l-19 -66 -105 0 -106 -1 0 366 0 367 -272 3 c-150 1 -273 -1 -274 -5 -4 -40
-3 -1947 2 -1954 3 -5 52 -9 110 -9 57 1 136 0 174 0 39 -1 77 -1 85 -1 8 0
38 0 65 0 75 -1 96 0 104 5 3 2 6 173 6 380 0 242 4 377 10 379 6 2 51 3 100
2 l90 0 23 -75 c12 -41 29 -88 37 -105 7 -16 22 -48 31 -70 20 -43 83 -142
118 -183 144 -170 323 -279 553 -336 80 -20 206 -39 258 -38 45 1 205 13 225
17 14 3 40 8 59 11 114 22 285 97 391 173 71 50 207 185 216 213 3 10 9 18 14
18 5 0 12 9 15 20 3 11 12 26 18 32 35 38 113 243 134 353 10 54 9 329 -1 385
-20 108 -108 329 -148 371 -7 8 -19 26 -27 41 -20 40 -144 162 -214 212 -54
38 -203 123 -225 127 -13 3 -27 7 -47 15 -11 4 -24 8 -30 9 -5 2 -37 10 -70
18 -33 9 -78 18 -100 22 -36 6 -292 14 -298 9z m221 -468 c44 -9 114 -36 133
-53 8 -7 20 -13 25 -13 25 0 133 -124 164 -187 54 -108 70 -190 66 -323 -7
-215 -89 -371 -246 -471 -87 -56 -262 -82 -357 -54 -24 7 -43 11 -43 9 0 -3
-32 12 -71 33 -176 94 -274 277 -272 508 0 55 8 147 13 153 2 1 3 5 4 10 32
122 66 184 140 257 33 33 89 75 124 93 34 17 62 30 62 28 0 -2 21 1 47 8 48
12 153 13 211 2z"/>
<path d="M4998 5727 c-1 -1 -2 -444 -3 -983 l-2 -981 126 -2 c69 -1 144 -1
166 -1 22 0 88 0 148 1 l107 0 1 77 c0 42 0 386 0 763 l0 685 374 1 374 0 0
-711 c0 -391 0 -734 1 -763 l0 -52 120 1 c66 1 123 -1 126 -5 3 -3 18 -2 32 2
15 4 39 4 55 0 15 -4 27 -4 27 -1 0 4 43 6 95 6 l95 -2 0 984 0 984 -920 -1
c-506 0 -921 -1 -922 -2z"/>
</g>
</svg>
