<svg width="33" height="33" viewBox="0 0 33 33" fill="none" xmlns="http://www.w3.org/2000/svg">
<path d="M30.3947 21.7279C28.3591 21.7279 26.3653 21.4101 24.4739 20.7848C23.5516 20.467 22.506 20.7119 21.8981 21.3302L18.1518 24.1595C13.8548 21.8669 11.1036 19.1174 8.83885 14.8483L11.5917 11.1905C12.2847 10.4958 12.5331 9.48316 12.2361 8.53314C11.6091 6.633 11.2895 4.63737 11.2895 2.60527C11.2895 1.16887 10.1206 0 8.68424 0H2.60527C1.16887 0 0 1.16887 0 2.60527C0 19.364 13.636 33 30.3947 33C31.8311 33 33 31.8311 33 30.3947V24.3332C33 22.8968 31.8311 21.7279 30.3947 21.7279ZM31.2632 30.3947C31.2632 30.8741 30.8724 31.2632 30.3947 31.2632C14.5929 31.2632 1.73682 18.4071 1.73682 2.60527C1.73682 2.1259 2.12761 1.73682 2.60527 1.73682H8.68424C9.1619 1.73682 9.55269 2.1259 9.55269 2.60527C9.55269 4.82324 9.90009 7.00124 10.5809 9.06632C10.6816 9.39109 10.6 9.72635 10.2822 10.0563L7.12109 14.2421C6.92138 14.5078 6.89011 14.8639 7.04122 15.1591C9.61693 20.2186 12.745 23.3484 17.8409 25.9589C18.1344 26.1117 18.494 26.0804 18.7597 25.879L23.0358 22.638C23.2686 22.4088 23.6107 22.3289 23.9199 22.4313C25.9972 23.1174 28.1752 23.4647 30.3949 23.4647C30.8726 23.4647 31.2633 23.8538 31.2633 24.3332V30.3947H31.2632Z" fill="white"/>
</svg>
