<svg width="92" height="108" viewBox="0 0 92 108" fill="none" xmlns="http://www.w3.org/2000/svg">
<path d="M29.1248 98.6103C33.4556 102.14 38.2676 105.107 43.3202 107.674C37.9117 105.829 32.7587 103.307 27.9844 100.167C27.3781 99.782 26.8006 99.3538 26.2063 98.9472C25.6121 98.5405 25.0394 98.1075 24.4716 97.6623C23.3215 96.7938 22.2148 95.8699 21.12 94.9243C18.9428 93.0117 16.9008 90.9504 15.0088 88.7553C11.1948 84.3366 8.0066 79.4143 5.53396 74.1268C4.28908 71.4746 3.22403 68.7416 2.346 65.9464C1.9049 64.5429 1.52395 63.121 1.20315 61.6806C1.03473 60.9588 0.883153 60.237 0.746011 59.4959C0.678643 59.1302 0.61368 58.7597 0.555936 58.3819L0.471726 57.8117L0.43323 57.5182L0.39714 57.1885V57.138V56.9864L0.24075 48.0048L0.130074 39.0208L0.000149516 21.0576C-0.00579307 20.476 0.165535 19.9064 0.491332 19.4246C0.817128 18.9427 1.28194 18.5716 1.8239 18.3605L1.87683 18.3388C3.01978 17.8967 4.11789 17.3464 5.15622 16.6955C6.22683 16.0231 7.24361 15.2685 8.1974 14.4387C9.17082 13.5994 10.0894 12.6985 10.9475 11.7415C11.3781 11.2603 11.8016 10.7791 12.2034 10.2667C12.4031 10.0261 12.598 9.76381 12.7881 9.51118L13.0623 9.14546L13.3029 8.81343L13.3775 8.70757C13.747 8.16676 14.2904 7.76859 14.9174 7.57915V7.57915L21.825 5.58217L28.7423 3.62368C31.0472 2.96444 33.3594 2.33407 35.6692 1.69888C36.824 1.37808 37.9805 1.06209 39.1386 0.750915L41.7852 0.0291141C42.004 -0.0290023 42.2368 0.000591663 42.4341 0.111593C42.6314 0.222595 42.7776 0.406233 42.8415 0.623397L43.8039 3.84744C43.8668 4.0647 43.8427 4.29791 43.7367 4.49773C43.6307 4.69755 43.4512 4.84831 43.236 4.91811L40.6183 5.75781C39.4779 6.12352 38.335 6.48442 37.1898 6.84051C34.9016 7.56231 32.6183 8.28411 30.323 8.97464L23.4443 11.0703L17.5447 12.8507L17.4725 12.9518C17.2319 13.2694 17.0106 13.5773 16.7724 13.8805C16.2912 14.4844 15.81 15.0835 15.2927 15.6441C14.264 16.7881 13.163 17.865 11.9965 18.8681C10.8127 19.8892 9.5514 20.8167 8.22387 21.6422C7.75951 21.931 7.28553 22.2053 6.79711 22.4651C6.49399 22.6304 6.24051 22.8737 6.06286 23.1698C5.88521 23.4659 5.78984 23.804 5.78659 24.1493L5.67832 39.0136L5.56764 47.9976L5.43291 56.8998V56.7843V56.984V56.8998V56.9792L5.45456 57.2198L5.50749 57.701C5.54599 58.0258 5.5893 58.3555 5.63742 58.6851C5.73366 59.3443 5.84674 60.0084 5.97426 60.67C6.21486 61.9957 6.53726 63.3166 6.88854 64.6327C7.59227 67.2697 8.46587 69.8583 9.50386 72.3825C10.542 74.9192 11.7377 77.3886 13.084 79.7761C13.7553 80.9791 14.4747 82.146 15.2253 83.2961C15.976 84.4462 16.758 85.5842 17.5832 86.6886C18.4085 87.7929 19.2674 88.8708 20.1673 89.9246C21.0671 90.9785 22.0031 91.9938 22.9606 92.9947C24.8936 94.996 26.9526 96.8717 29.1248 98.6103V98.6103Z" fill="black"/>
<path d="M5.43296 56.9024L5.43056 56.9866L5.42334 56.7869L5.43296 56.9024Z" fill="black"/>
<path d="M89.6407 18.3604C90.1815 18.5703 90.6456 18.9399 90.9713 19.4199C91.2971 19.9 91.4691 20.4678 91.4644 21.0479V21.0479L91.3321 39.0111L91.2214 47.9951L91.0843 56.9767V57.1283V57.1788L91.0458 57.5085L91.0073 57.802L90.9255 58.3722C90.8653 58.75 90.8028 59.1205 90.733 59.4862C90.5983 60.2224 90.4443 60.949 90.2783 61.6708C89.9446 63.1144 89.5589 64.5356 89.121 65.9343C88.2448 68.7298 87.1805 71.4628 85.9354 74.1147C83.4612 79.4024 80.2714 84.3247 76.4558 88.7432C74.5637 90.9383 72.5217 92.9996 70.3445 94.9122C69.2522 95.8578 68.143 96.7817 66.993 97.6502C66.4275 98.0953 65.8357 98.5068 65.2582 98.935C64.6808 99.3633 64.0889 99.7699 63.4802 100.155C58.7061 103.295 53.5531 105.818 48.1443 107.662C53.1969 105.09 58.0089 102.128 62.3397 98.5982C64.513 96.8608 66.572 94.985 68.5039 92.9826C69.4663 91.9817 70.3983 90.9583 71.2997 89.9125C72.2011 88.8667 73.0625 87.788 73.8837 86.6764C74.709 85.5721 75.491 84.4389 76.2392 83.284C76.9875 82.1291 77.7093 80.9622 78.3806 79.764C79.7276 77.3765 80.9241 74.9071 81.9631 72.3703C82.9973 69.848 83.8684 67.2618 84.5712 64.6278C84.9201 63.3141 85.2305 61.9812 85.4831 60.6651C85.6106 60.0035 85.7237 59.3394 85.8199 58.6802C85.8705 58.3506 85.9138 58.0209 85.9523 57.6961L86.0028 57.2149L86.0244 56.9743V56.9046V56.9791V56.7794V56.9046L85.8873 48.0023L85.7766 39.0183L85.6708 24.154C85.6688 23.8082 85.5737 23.4693 85.3955 23.1729C85.2172 22.8765 84.9624 22.6337 84.6578 22.4698C84.1766 22.21 83.701 21.9357 83.2311 21.647C81.9039 20.8208 80.6427 19.8934 79.4585 18.8728C78.2942 17.8672 77.1956 16.7879 76.1695 15.6416C75.657 15.0738 75.1686 14.4819 74.6922 13.878C74.4516 13.5748 74.211 13.2669 73.992 12.9493L73.9198 12.8482L68.0203 11.0702L61.144 8.97695C58.851 8.27921 56.5726 7.55741 54.2772 6.84283C53.132 6.48674 51.9891 6.12584 50.8487 5.76012L48.2309 4.92043C48.0163 4.85062 47.8372 4.70024 47.7313 4.50097C47.6254 4.3017 47.6009 4.0691 47.6631 3.85216L48.6255 0.628119C48.689 0.413145 48.833 0.231016 49.0276 0.119813C49.2223 0.00860946 49.4523 -0.0230588 49.6697 0.0314296L52.3163 0.753231C53.4808 1.05478 54.6397 1.36596 55.793 1.68676C58.1028 2.32676 60.4149 2.95713 62.7199 3.61156L69.6396 5.57005L76.5472 7.56703C77.1776 7.75064 77.7256 8.14571 78.0991 8.68583L78.1712 8.78928L78.4118 9.12131L78.6765 9.51109C78.8642 9.75169 79.0591 10.0163 79.2612 10.2666C79.6606 10.7694 80.084 11.2578 80.5147 11.7415C81.3736 12.6984 82.293 13.5993 83.2672 14.4386C84.2212 15.2659 85.238 16.0181 86.3084 16.6882C87.3462 17.34 88.4444 17.8903 89.5877 18.3315L89.6407 18.3604Z" fill="#FCBE20"/>
<path d="M86.0414 56.7869L86.0317 56.9866V56.912L86.0414 56.7869Z" fill="#FCBE20"/>
<path d="M43.6955 37.9574C45.6657 39.0172 47.3063 40.5988 48.4377 42.5288C49.5656 44.5347 50.1581 46.7972 50.1581 49.0984C50.1581 51.3996 49.5656 53.6621 48.4377 55.668C47.3072 57.5988 45.6664 59.1805 43.6955 60.2394C41.6128 61.358 39.2792 61.9269 36.9153 61.8923C34.8271 61.9167 32.7586 61.4848 30.8546 60.6268C29.0715 59.8315 27.5063 58.618 26.2917 57.0893C25.0771 55.5606 24.2489 53.7616 23.8772 51.8449H21.3172V61.3991H14.4697V36.7977H21.3172V46.0007H23.9638C24.3809 44.1356 25.2352 42.3964 26.4564 40.9264C27.6829 39.4558 29.2337 38.2897 30.9869 37.5195C32.8581 36.7005 34.8826 36.2904 36.925 36.3165C39.2844 36.281 41.6141 36.8457 43.6955 37.9574V37.9574ZM40.0865 55.2397C41.0387 54.6369 41.8095 53.7871 42.3168 52.7808C42.8598 51.627 43.1414 50.3676 43.1414 49.0924C43.1414 47.8172 42.8598 46.5578 42.3168 45.404C41.8084 44.3984 41.0378 43.5489 40.0865 42.9451C39.1378 42.357 38.0409 42.0524 36.925 42.0669C35.7985 42.0486 34.69 42.3511 33.729 42.939C32.7679 43.5269 31.9938 44.376 31.497 45.3872C30.9535 46.5472 30.6718 47.8126 30.6718 49.0936C30.6718 50.3746 30.9535 51.64 31.497 52.8001C31.9934 53.8113 32.7675 54.6604 33.7287 55.248C34.6899 55.8355 35.7986 56.1373 36.925 56.1179C38.0378 56.1317 39.1314 55.827 40.0768 55.2397H40.0865Z" fill="black"/>
<path d="M76.9925 36.7976V61.387H70.1113V42.3122H60.7664V61.387H53.9165V36.7976H76.9925Z" fill="#FCBE20"/>
</svg>
