<svg width="109" height="120" viewBox="0 0 109 120" fill="none" xmlns="http://www.w3.org/2000/svg">
<path d="M102.384 0.0542638C99.9117 -0.162099 95.4299 1.82689 94.2105 3.97506C90.8461 10.6838 87.4384 18.1932 85.3489 25.6113C83.448 32.3649 81.5193 36.9641 79.3742 43.1258C76.0175 52.7756 74.3701 61.3111 71.5543 65.2844C70.627 66.598 75.1443 61.9231 73.0997 60.6883C70.5374 59.9804 68.978 64.6879 65.7882 64.4452C60.5337 63.8873 70.5791 60.543 71.97 58.0718C75.7873 49.7991 66.4219 60.0114 63.5118 60.2138C31.0095 74.7611 11.591 22.5961 44.8382 15.4546C50.085 14.0421 64.7744 10.7302 62.3805 19.496C61.5583 21.8945 59.8135 23.9778 58.0285 25.908C55.2081 28.9448 55.0381 30.7715 48.3262 31.1625C39.6563 32.2582 39.6053 46.8596 48.3061 47.6988C53.998 48.9862 59.2896 44.2107 58.8476 39.6625C59.5431 37.366 58.214 36.227 60.2617 35.0833C64.6554 31.3449 69.8435 24.8231 70.0073 24.6006C71.885 22.2963 72.4537 21.9857 73.1986 19.462C75.3468 12.1814 73.9559 14.1518 69.6055 10.0873C66.8762 5.15578 60.8722 5.59623 56.4089 4.73078C55.0381 4.04151 60.4147 3.25179 57.9219 2.48834C56.4676 2.0448 47.7946 3.76642 46.1271 3.12197C44.3792 2.44661 50.105 0.514806 48.2629 0.0511729C45.1813 -0.30428 42.5107 1.28753 39.6949 1.88098C36.4608 2.53167 33.3405 3.65599 30.4346 5.2176C26.367 7.43686 22.4493 10.2666 20.4711 13.4795C20.4021 13.6566 20.2756 13.8054 20.112 13.9022C19.9484 13.999 19.7571 14.0381 19.5687 14.0134C19.3802 13.9886 19.2055 13.9014 19.0724 13.7657C18.9393 13.63 18.8556 13.4536 18.8345 13.2647C18.544 11.5972 17.9814 9.81684 17.4436 8.02412C15.3866 -1.61636 -2.33346 -2.62708 0.258256 9.33312C5.04914 28.475 22.3288 67.6489 31.6169 93.8798C34.0216 100.669 38.1912 107.372 41.9961 113.474C46.8132 121.321 58.1893 121.389 63.0991 113.603C67.0184 107.576 70.7306 101.211 73.1785 94.4516C84.0183 65.5919 96.7837 36.2764 108.266 8.65467C109.993 4.50669 106.88 -0.0554629 102.384 0.0542638ZM64.4035 75.6868C67.6072 74.7333 65.3941 78.4222 64.9413 79.3C60.9695 86.9794 54.8357 107.727 49.1314 98.2333C28.645 64.1361 45.5568 81.2906 64.4035 75.6868Z" fill="white"/>
</svg>
