<svg width="111" height="130" viewBox="0 0 111 130" fill="none" xmlns="http://www.w3.org/2000/svg">
<path d="M35.1639 119.057C40.3927 123.319 46.2025 126.9 52.3028 130C45.7728 127.773 39.5513 124.728 33.787 120.937C33.0549 120.472 32.3578 119.955 31.6403 119.464C30.9227 118.973 30.2314 118.45 29.5458 117.913C28.1573 116.864 26.821 115.749 25.4993 114.607C22.8706 112.298 20.4052 109.809 18.1209 107.159C13.516 101.824 9.66677 95.881 6.68143 89.4971C5.17843 86.2949 3.89253 82.9952 2.83245 79.6205C2.29989 77.9259 1.83995 76.2092 1.45263 74.4701C1.24928 73.5986 1.06628 72.7271 0.900697 71.8324C0.81936 71.3909 0.740928 70.9436 0.67121 70.4875L0.569539 69.799L0.523061 69.4446L0.479488 69.0467V68.9856V68.8026L0.29067 57.9587L0.157045 47.1118L0.000180518 25.4239C-0.00699427 24.7217 0.199859 24.034 0.59321 23.4523C0.986561 22.8705 1.54775 22.4224 2.20209 22.1675L2.266 22.1414C3.64594 21.6076 4.97174 20.9432 6.22536 20.1573C7.51797 19.3455 8.74559 18.4345 9.89715 17.4325C11.0724 16.4192 12.1814 15.3315 13.2174 14.1762C13.7374 13.5952 14.2487 13.0142 14.7338 12.3955C14.9749 12.105 15.2102 11.7883 15.4397 11.4833L15.7708 11.0418L16.0613 10.6409L16.1514 10.5131C16.5975 9.86015 17.2535 9.37941 18.0105 9.1507L26.3504 6.73964L34.702 4.37506C37.4849 3.57912 40.2765 2.81804 43.0652 2.05115C44.4595 1.66383 45.8558 1.28232 47.254 0.906618L50.4494 0.0351509C50.7136 -0.035016 50.9947 0.000714344 51.2329 0.134732C51.4711 0.26875 51.6475 0.490466 51.7247 0.752659L52.8866 4.64521C52.9626 4.90752 52.9335 5.18909 52.8056 5.43034C52.6776 5.67159 52.4608 5.85361 52.2011 5.93789L49.0406 6.9517C47.6636 7.39324 46.2838 7.82897 44.9011 8.2589C42.1385 9.13037 39.3818 10.0018 36.6105 10.8355L28.3054 13.3657L21.1826 15.5153L21.0955 15.6373C20.805 16.0208 20.5378 16.3926 20.2502 16.7586C19.6692 17.4877 19.0882 18.2111 18.4637 18.8879C17.2217 20.2692 15.8924 21.5694 14.484 22.7805C13.0548 24.0133 11.5319 25.1331 9.9291 26.1298C9.36845 26.4784 8.79619 26.8095 8.2065 27.1233C7.84052 27.3229 7.53448 27.6166 7.32 27.9741C7.10551 28.3316 6.99036 28.7398 6.98644 29.1567L6.85572 47.1031L6.7221 57.95L6.55943 68.6981V68.5586V68.7997V68.6981V68.7939L6.58557 69.0844L6.64948 69.6654C6.69596 70.0576 6.74824 70.4555 6.80634 70.8535C6.92254 71.6494 7.05907 72.4512 7.21303 73.25C7.50352 74.8506 7.89277 76.4454 8.31688 78.0344C9.16654 81.2181 10.2213 84.3435 11.4745 87.391C12.7279 90.4538 14.1716 93.4352 15.797 96.3178C16.6074 97.7702 17.476 99.1791 18.3823 100.568C19.2887 101.956 20.2327 103.33 21.2291 104.664C22.2255 105.997 23.2626 107.298 24.349 108.571C25.4354 109.843 26.5654 111.069 27.7216 112.277C30.0554 114.693 32.5412 116.958 35.1639 119.057Z" fill="white"/>
<path d="M6.55941 68.7007L6.5565 68.8024L6.54779 68.5613L6.55941 68.7007Z" fill="white"/>
<path d="M108.228 22.1675C108.881 22.421 109.441 22.8672 109.834 23.4468C110.228 24.0263 110.435 24.7119 110.43 25.4123L110.27 47.1002L110.136 57.9471L109.971 68.791V68.974V69.035L109.924 69.433L109.878 69.7874L109.779 70.4759C109.706 70.9319 109.631 71.3793 109.546 71.8208C109.384 72.7097 109.198 73.587 108.997 74.4585C108.595 76.2014 108.129 77.9172 107.6 79.6059C106.542 82.9811 105.257 86.2808 103.754 89.4826C100.767 95.8667 96.9157 101.81 92.3089 107.144C90.0245 109.795 87.5591 112.283 84.9304 114.592C83.6116 115.734 82.2725 116.85 80.8839 117.898C80.2013 118.436 79.4867 118.932 78.7895 119.449C78.0923 119.966 77.3777 120.457 76.6428 120.922C70.8788 124.714 64.6572 127.759 58.127 129.985C64.2273 126.88 70.0371 123.304 75.2659 119.043C77.8898 116.945 80.3757 114.68 82.7082 112.263C83.8702 111.054 84.9953 109.819 86.0837 108.556C87.172 107.293 88.212 105.991 89.2035 104.649C90.1999 103.316 91.144 101.947 92.0474 100.553C92.9508 99.1588 93.8223 97.7499 94.6328 96.3033C96.2591 93.4207 97.7037 90.4393 98.9582 87.3765C100.207 84.3311 101.259 81.2087 102.107 78.0286C102.528 76.4425 102.903 74.8332 103.208 73.2442C103.362 72.4454 103.499 71.6436 103.615 70.8477C103.676 70.4497 103.728 70.0517 103.774 69.6596L103.835 69.0786L103.862 68.7881V68.7039V68.7939V68.5528V68.7039L103.696 57.9558L103.562 47.1089L103.435 29.1625C103.432 28.7449 103.317 28.3358 103.102 27.9779C102.887 27.6201 102.579 27.3269 102.212 27.1291C101.631 26.8153 101.056 26.4842 100.489 26.1356C98.8867 25.1382 97.3639 24.0184 95.9342 22.7863C94.5284 21.5721 93.2021 20.269 91.9632 18.885C91.3444 18.1994 90.7547 17.4848 90.1796 16.7557C89.8891 16.3897 89.5986 16.0179 89.3343 15.6344L89.2471 15.5124L82.1243 13.3657L73.8221 10.8384C71.0538 9.99602 68.3028 9.12455 65.5316 8.2618C64.1488 7.83188 62.769 7.39614 61.3921 6.9546L58.2316 5.94079C57.9725 5.85651 57.7562 5.67494 57.6283 5.43436C57.5005 5.19377 57.4709 4.91294 57.546 4.65102L58.708 0.758467C58.7846 0.498918 58.9585 0.279025 59.1935 0.144763C59.4284 0.0105016 59.7062 -0.027733 59.9687 0.0380535L63.1641 0.909521C64.5701 1.2736 65.9692 1.6493 67.3617 2.03662C70.1503 2.80932 72.9419 3.5704 75.7248 4.36053L84.0793 6.72511L92.4192 9.13617C93.1804 9.35785 93.842 9.83484 94.2929 10.4869L94.38 10.6119L94.6705 11.0127L94.9901 11.4833C95.2167 11.7738 95.452 12.0934 95.696 12.3955C96.1782 13.0026 96.6894 13.5923 97.2094 14.1762C98.2464 15.3315 99.3564 16.4192 100.533 17.4325C101.684 18.4315 102.912 19.3395 104.204 20.1486C105.457 20.9356 106.783 21.6 108.164 22.1327L108.228 22.1675Z" fill="white"/>
<path d="M103.882 68.5613L103.87 68.8024V68.7123L103.882 68.5613Z" fill="white"/>
<path d="M52.7559 45.828C55.1347 47.1076 57.1155 49.017 58.4815 51.3473C59.8433 53.7691 60.5586 56.5007 60.5586 59.2791C60.5586 62.0575 59.8433 64.7891 58.4815 67.2109C57.1166 69.542 55.1355 71.4517 52.7559 72.7302C50.2414 74.0808 47.4239 74.7676 44.5699 74.7259C42.0487 74.7553 39.5514 74.2338 37.2525 73.1979C35.0996 72.2377 33.2099 70.7726 31.7435 68.9269C30.277 67.0812 29.2771 64.9093 28.8283 62.595H25.7375V74.1304H17.4702V44.4278H25.7375V55.5391H28.9329C29.4364 53.2873 30.4679 51.1875 31.9424 49.4126C33.4232 47.6371 35.2955 46.2292 37.4123 45.2993C39.6715 44.3105 42.1157 43.8153 44.5816 43.8469C47.4302 43.804 50.243 44.4857 52.7559 45.828ZM48.3986 66.6938C49.5482 65.9661 50.4789 64.94 51.0914 63.725C51.747 62.332 52.087 60.8114 52.087 59.2718C52.087 57.7323 51.747 56.2117 51.0914 54.8186C50.4776 53.6046 49.5472 52.5789 48.3986 51.8498C47.2533 51.1399 45.929 50.772 44.5816 50.7896C43.2215 50.7675 41.8832 51.1327 40.7229 51.8425C39.5625 52.5523 38.6279 53.5775 38.0281 54.7983C37.3719 56.1989 37.0318 57.7266 37.0318 59.2733C37.0318 60.82 37.3719 62.3477 38.0281 63.7483C38.6275 64.9693 39.5621 65.9944 40.7226 66.7038C41.8831 67.4132 43.2216 67.7775 44.5816 67.7541C45.9252 67.7707 47.2455 67.4028 48.387 66.6938H48.3986Z" fill="white"/>
<path d="M92.9568 44.428V74.116H84.6488V51.086H73.3662V74.116H65.0959V44.428H92.9568Z" fill="white"/>
</svg>
