<svg width="417" height="130" viewBox="0 0 417 130" fill="none" xmlns="http://www.w3.org/2000/svg">
<path d="M150.849 103.53C152.017 103.53 153.065 103.796 153.994 104.329C154.935 104.85 155.672 105.575 156.204 106.505C156.737 107.434 157.003 108.482 157.003 109.65C157.004 110.817 156.737 111.865 156.205 112.795C155.672 113.724 154.935 114.455 153.995 114.988C153.065 115.509 152.017 115.77 150.85 115.77C149.784 115.77 148.81 115.549 147.926 115.107C147.053 114.665 146.333 114.047 145.767 113.254C145.211 112.46 144.866 111.559 144.73 110.551L142.86 110.551L142.86 115.6L140.684 115.6L140.683 103.7L142.859 103.7L142.859 108.579L144.763 108.579C144.922 107.593 145.279 106.72 145.834 105.961C146.401 105.19 147.115 104.595 147.976 104.176C148.849 103.745 149.807 103.53 150.849 103.53ZM150.85 113.832C151.586 113.832 152.255 113.656 152.856 113.305C153.456 112.953 153.927 112.46 154.267 111.826C154.607 111.191 154.776 110.466 154.776 109.65C154.776 108.834 154.606 108.108 154.266 107.474C153.926 106.839 153.456 106.346 152.855 105.995C152.255 105.643 151.586 105.468 150.849 105.468C150.113 105.468 149.444 105.643 148.843 105.995C148.254 106.346 147.784 106.839 147.432 107.474C147.092 108.108 146.922 108.834 146.922 109.65C146.922 110.466 147.093 111.191 147.433 111.826C147.784 112.46 148.254 112.953 148.844 113.305C149.444 113.656 150.113 113.832 150.85 113.832ZM164.372 103.7C165.403 103.7 166.298 103.87 167.058 104.21C167.828 104.55 168.418 105.037 168.826 105.672C169.234 106.306 169.438 107.06 169.438 107.933C169.438 108.794 169.234 109.548 168.826 110.194C168.418 110.828 167.829 111.316 167.058 111.656C166.299 111.996 165.403 112.166 164.372 112.166L161.686 112.166L161.686 115.6L159.476 115.6L159.476 103.7L164.372 103.7ZM164.27 110.296C165.233 110.296 165.964 110.092 166.463 109.684C166.962 109.276 167.211 108.692 167.211 107.933C167.211 107.173 166.962 106.59 166.463 106.182C165.964 105.774 165.233 105.57 164.27 105.57L161.686 105.57L161.686 110.296L164.27 110.296ZM171.546 103.7L173.722 103.7L173.722 112.149L180.114 103.7L182.171 103.7L182.171 115.6L179.995 115.6L179.995 107.168L173.603 115.6L171.546 115.6L171.546 103.7ZM197.189 113.73L197.189 118.133L195.149 118.133L195.149 115.6L186.02 115.6L186.02 118.133L183.963 118.133L183.98 113.73L184.49 113.73C185.238 113.696 185.76 113.146 186.054 112.081C186.36 111.004 186.547 109.468 186.615 107.474L186.751 103.7L195.472 103.7L195.472 113.73L197.189 113.73ZM188.553 107.678C188.496 109.219 188.372 110.505 188.179 111.537C187.987 112.557 187.681 113.288 187.261 113.73L193.296 113.73L193.296 105.57L188.638 105.57L188.553 107.678ZM199.287 103.7L201.463 103.7L201.463 112.149L207.855 103.7L209.912 103.7L209.912 115.6L207.736 115.6L207.736 107.168L201.344 115.6L199.287 115.6L199.287 103.7ZM222.198 103.699L222.199 115.599L220.006 115.6L220.006 111.112C218.884 111.531 217.818 111.741 216.81 111.741C215.291 111.741 214.118 111.378 213.291 110.653C212.474 109.916 212.066 108.862 212.066 107.491L212.066 103.7L214.259 103.7L214.259 107.253C214.259 108.091 214.503 108.732 214.99 109.174C215.478 109.616 216.175 109.837 217.081 109.837C218.113 109.837 219.087 109.627 220.005 109.208L220.005 103.7L222.198 103.699ZM234.459 113.746L234.459 115.599L225.534 115.599L225.533 103.699L234.22 103.699L234.22 105.552L227.743 105.552L227.744 108.646L233.49 108.646L233.49 110.465L227.744 110.465L227.744 113.746L234.459 113.746ZM242.347 115.769C241.145 115.769 240.057 115.509 239.083 114.987C238.119 114.455 237.36 113.724 236.805 112.794C236.261 111.865 235.989 110.817 235.989 109.649C235.988 108.482 236.266 107.434 236.821 106.504C237.377 105.575 238.136 104.85 239.099 104.328C240.074 103.796 241.162 103.529 242.363 103.529C243.338 103.529 244.228 103.699 245.032 104.039C245.837 104.379 246.517 104.872 247.072 105.518L245.644 106.861C244.783 105.932 243.723 105.467 242.465 105.467C241.649 105.467 240.918 105.649 240.272 106.011C239.626 106.363 239.122 106.856 238.759 107.49C238.397 108.125 238.215 108.845 238.216 109.649C238.216 110.454 238.397 111.174 238.76 111.808C239.122 112.443 239.627 112.942 240.273 113.304C240.919 113.656 241.65 113.831 242.466 113.831C243.724 113.831 244.783 113.361 245.645 112.42L247.073 113.78C246.517 114.426 245.832 114.919 245.016 115.259C244.211 115.599 243.321 115.769 242.347 115.769ZM253.511 110.584L251.301 110.584L251.301 115.599L249.125 115.599L249.124 103.699L251.3 103.699L251.3 108.68L253.578 108.68L256.995 103.699L259.341 103.699L255.278 109.462L259.495 115.599L256.996 115.599L253.511 110.584ZM261.011 103.699L263.187 103.699L263.188 112.148L269.579 103.699L271.636 103.699L271.637 115.599L269.461 115.599L269.46 107.167L263.069 115.599L261.012 115.599L261.011 103.699ZM274.99 103.699L277.166 103.699L277.166 112.148L283.558 103.699L285.615 103.699L285.615 115.599L283.439 115.599L283.439 107.167L277.047 115.599L274.99 115.599L274.99 103.699ZM280.277 102.9C279.257 102.9 278.486 102.691 277.965 102.271C277.455 101.852 277.194 101.24 277.183 100.435L278.73 100.435C278.741 100.855 278.877 101.178 279.138 101.404C279.398 101.631 279.778 101.744 280.277 101.744C280.764 101.744 281.144 101.631 281.416 101.404C281.699 101.178 281.846 100.855 281.858 100.435L283.388 100.435C283.376 101.229 283.104 101.841 282.572 102.271C282.05 102.691 281.285 102.9 280.277 102.9ZM305.805 113.729L305.805 118.217L303.765 118.217L303.765 115.599L293.667 115.599L293.667 103.699L295.843 103.699L295.843 113.729L301.844 113.729L301.844 103.699L304.037 103.699L304.037 113.729L305.805 113.729ZM316.753 113.746L316.753 115.599L307.828 115.599L307.827 103.699L316.514 103.699L316.514 105.552L310.037 105.552L310.038 108.646L315.784 108.646L315.784 110.465L310.038 110.465L310.038 113.746L316.753 113.746ZM329.79 103.699L329.791 115.599L327.581 115.599L327.58 110.499L321.426 110.499L321.427 115.599L319.217 115.599L319.216 103.699L321.426 103.699L321.426 108.612L327.58 108.612L327.58 103.699L329.79 103.699ZM341.764 105.569L337.82 105.569L337.821 115.599L335.628 115.599L335.627 105.569L331.7 105.569L331.7 103.699L341.764 103.699L341.764 105.569ZM348.566 103.699C349.597 103.699 350.493 103.869 351.252 104.209C352.023 104.549 352.612 105.036 353.02 105.671C353.428 106.306 353.632 107.059 353.632 107.932C353.632 108.793 353.428 109.547 353.02 110.193C352.612 110.828 352.023 111.315 351.252 111.655C350.493 111.995 349.598 112.165 348.566 112.165L345.88 112.165L345.881 115.599L343.671 115.599L343.67 103.699L348.566 103.699ZM348.464 110.295C349.428 110.295 350.159 110.091 350.657 109.683C351.156 109.275 351.405 108.691 351.405 107.932C351.405 107.173 351.156 106.589 350.657 106.181C350.159 105.773 349.428 105.569 348.464 105.569L345.88 105.569L345.88 110.295L348.464 110.295Z" fill="black"/>
<path d="M164.179 9.01111C166.675 9.0111 168.927 9.55943 170.934 10.6561C172.94 11.7527 174.515 13.2694 175.659 15.2061C176.802 17.1427 177.374 19.3244 177.374 21.7511C177.374 24.1777 176.803 26.3594 175.659 28.2961C174.516 30.2327 172.941 31.7494 170.935 32.8461C168.928 33.9428 166.676 34.4911 164.18 34.4911C161.986 34.4911 159.968 34.0711 158.125 33.2311C156.305 32.3911 154.788 31.2128 153.574 29.6962C152.384 28.1795 151.591 26.4412 151.194 24.4812L148.639 24.4812L148.64 34.0012L141.815 34.0012L141.814 9.50121L148.639 9.50118L148.639 18.6712L151.264 18.6712C151.707 16.7578 152.536 15.0778 153.749 13.6312C154.962 12.1612 156.467 11.0295 158.264 10.2361C160.06 9.41946 162.032 9.01112 164.179 9.01111ZM164.179 28.7511C165.346 28.7511 166.396 28.4594 167.329 27.8761C168.263 27.2928 168.998 26.4761 169.534 25.4261C170.094 24.3761 170.374 23.1511 170.374 21.7511C170.374 20.3511 170.094 19.1261 169.534 18.0761C168.997 17.0261 168.262 16.2094 167.329 15.6261C166.396 15.0428 165.346 14.7511 164.179 14.7511C163.012 14.7511 161.951 15.0428 160.994 15.6261C160.061 16.1861 159.314 17.0028 158.754 18.0761C158.217 19.1261 157.949 20.3511 157.949 21.7511C157.949 23.1511 158.218 24.3878 158.754 25.4611C159.314 26.5111 160.061 27.3278 160.994 27.9111C161.951 28.4711 163.013 28.7511 164.179 28.7511ZM192.32 9.50099C194.537 9.50098 196.462 9.87431 198.095 10.621C199.729 11.3443 200.989 12.3943 201.875 13.771C202.762 15.1243 203.206 16.7226 203.206 18.5659C203.206 20.4093 202.762 22.0076 201.876 23.361C200.989 24.7143 199.729 25.7643 198.096 26.511C196.463 27.2343 194.538 27.596 192.321 27.596L188.051 27.596L188.051 34.001L181.121 34.001L181.12 9.50104L192.32 9.50099ZM191.901 22.136C193.324 22.136 194.397 21.8327 195.121 21.226C195.844 20.596 196.206 19.7093 196.206 18.566C196.206 17.4226 195.844 16.536 195.121 15.906C194.397 15.276 193.324 14.961 191.9 14.961L188.05 14.961L188.051 22.136L191.901 22.136ZM206.345 9.50093L213.17 9.5009L213.17 23.8859L223.285 9.50086L229.795 9.50083L229.796 34.0008L222.971 34.0009L222.97 19.6509L212.891 34.0009L206.346 34.0009L206.345 9.50093ZM246.992 34.4908C244.425 34.4908 242.115 33.9541 240.062 32.8808C238.032 31.7841 236.433 30.2675 235.267 28.3308C234.1 26.3941 233.516 24.2008 233.516 21.7508C233.516 19.3008 234.099 17.1075 235.266 15.1708C236.433 13.2341 238.031 11.7291 240.061 10.6558C242.114 9.55911 244.424 9.01077 246.991 9.01076C249.231 9.01075 251.249 9.40741 253.046 10.2007C254.843 10.9941 256.336 12.1374 257.526 13.6307L253.116 17.6207C251.529 15.7074 249.604 14.7507 247.341 14.7508C246.011 14.7508 244.821 15.0424 243.771 15.6258C242.744 16.2091 241.939 17.0374 241.356 18.1108C240.796 19.1608 240.516 20.3741 240.516 21.7508C240.516 23.1275 240.796 24.3525 241.356 25.4258C241.94 26.4758 242.745 27.2924 243.772 27.8758C244.822 28.4591 246.012 28.7508 247.342 28.7508C249.605 28.7507 251.53 27.7941 253.117 25.8807L257.527 29.8707C256.337 31.3641 254.843 32.5074 253.047 33.3007C251.25 34.0941 249.232 34.4908 246.992 34.4908ZM280.192 14.9956L272.702 14.9956L272.702 34.0007L265.877 34.0007L265.877 14.9957L258.352 14.9957L258.351 9.50071L280.191 9.50062L280.192 14.9956ZM164.81 52.5011L164.811 77.0011L157.951 77.0011L157.951 57.9961L148.641 57.9962L148.641 77.0012L141.816 77.0012L141.815 52.5012L164.81 52.5011ZM186.954 72.241L176.594 72.2411L174.669 77.0011L167.599 77.0011L178.413 52.5011L185.238 52.501L196.089 77.001L188.879 77.001L186.954 72.241ZM184.923 67.131L181.773 59.291L178.623 67.1311L184.923 67.131ZM210.096 52.5009C212.312 52.5009 214.237 52.8742 215.871 53.6209C217.504 54.3442 218.764 55.3942 219.651 56.7709C220.537 58.1242 220.981 59.7225 220.981 61.5659C220.981 63.4092 220.538 65.0075 219.651 66.3609C218.764 67.7142 217.505 68.7642 215.871 69.5109C214.238 70.2342 212.313 70.5959 210.096 70.5959L205.826 70.5959L205.827 77.0009L198.897 77.001L198.896 52.501L210.096 52.5009ZM209.676 65.1359C211.099 65.1359 212.173 64.8326 212.896 64.2259C213.619 63.5959 213.981 62.7092 213.981 61.5659C213.981 60.4226 213.619 59.5359 212.896 58.9059C212.172 58.2759 211.099 57.9609 209.676 57.9609L205.826 57.9609L205.826 65.1359L209.676 65.1359ZM243.245 57.9958L235.755 57.9958L235.756 77.0008L228.931 77.0008L228.93 57.9958L221.405 57.9959L221.405 52.5009L243.245 52.5008L243.245 57.9958ZM269.749 52.5007L269.75 77.0007L262.82 77.0007L262.82 67.4457L253.37 67.4457L253.37 77.0007L246.44 77.0008L246.439 52.5008L253.369 52.5007L253.37 61.7057L262.82 61.7057L262.819 52.5007L269.749 52.5007ZM294.684 71.6456L294.685 77.0006L275.015 77.0006L275.014 52.5006L294.229 52.5006L294.229 57.8556L281.874 57.8556L281.874 61.9856L292.759 61.9856L292.759 67.1656L281.874 67.1656L281.874 71.6456L294.684 71.6456ZM309.832 52.5005C312.049 52.5005 313.974 52.8738 315.607 53.6205C317.24 54.3438 318.5 55.3938 319.387 56.7705C320.274 58.1238 320.717 59.7221 320.717 61.5654C320.717 63.4088 320.274 65.0071 319.387 66.3604C318.501 67.7138 317.241 68.7638 315.608 69.5105C313.974 70.2338 312.049 70.5955 309.833 70.5955L305.563 70.5955L305.563 77.0005L298.633 77.0005L298.632 52.5005L309.832 52.5005ZM309.412 65.1355C310.836 65.1355 311.909 64.8321 312.632 64.2255C313.356 63.5955 313.717 62.7088 313.717 61.5655C313.717 60.4221 313.355 59.5355 312.632 58.9055C311.909 58.2755 310.835 57.9605 309.412 57.9605L305.562 57.9605L305.562 65.1355L309.412 65.1355Z" fill="black"/>
<path d="M29.1248 106.209C33.4556 109.739 38.2676 112.705 43.3202 115.273C37.9117 113.428 32.7587 110.906 27.9844 107.766C27.3781 107.381 26.8006 106.953 26.2063 106.546C25.6121 106.139 25.0394 105.706 24.4716 105.261C23.3215 104.393 22.2148 103.469 21.1201 102.523C18.9428 100.611 16.9008 98.5493 15.0088 96.3542C11.1948 91.9355 8.0066 87.0132 5.53396 81.7257C4.28908 79.0735 3.22403 76.3405 2.346 73.5453C1.9049 72.1418 1.52395 70.7198 1.20315 69.2794C1.03473 68.5576 0.883153 67.8358 0.746011 67.0948C0.678643 66.7291 0.61368 66.3585 0.555936 65.9808L0.471726 65.4106L0.43323 65.1171L0.39714 64.7874V64.7369V64.5853L0.24075 55.6037L0.130074 46.6197L0.000149516 28.6565C-0.00579307 28.0749 0.165535 27.5053 0.491332 27.0234C0.817128 26.5416 1.28194 26.1705 1.8239 25.9593L1.87683 25.9377C3.01978 25.4956 4.11789 24.9453 5.15622 24.2944C6.22683 23.622 7.24362 22.8674 8.1974 22.0375C9.17082 21.1982 10.0894 20.2973 10.9475 19.3404C11.3781 18.8592 11.8016 18.378 12.2034 17.8655C12.4031 17.6249 12.598 17.3627 12.7881 17.1101L13.0623 16.7443L13.3029 16.4123L13.3775 16.3064C13.747 15.7656 14.2904 15.3675 14.9174 15.178L21.825 13.181L28.7423 11.2226C31.0472 10.5633 33.3594 9.93294 35.6692 9.29776C36.824 8.97696 37.9805 8.66097 39.1386 8.34979L41.7852 7.62799C42.004 7.56987 42.2368 7.59947 42.4341 7.71047C42.6314 7.82147 42.7776 8.00511 42.8415 8.22227L43.8039 11.4463C43.8668 11.6636 43.8427 11.8968 43.7367 12.0966C43.6307 12.2964 43.4512 12.4472 43.236 12.517L40.6183 13.3567C39.4779 13.7224 38.335 14.0833 37.1898 14.4394C34.9016 15.1612 32.6183 15.883 30.323 16.5735L23.4443 18.6691L17.5447 20.4496L17.4725 20.5506C17.2319 20.8682 17.0106 21.1762 16.7724 21.4794C16.2912 22.0833 15.81 22.6824 15.2927 23.243C14.264 24.387 13.163 25.4639 11.9965 26.467C10.8127 27.4881 9.5514 28.4156 8.22387 29.2411C7.75951 29.5298 7.28553 29.8041 6.79711 30.064C6.49399 30.2293 6.24051 30.4726 6.06286 30.7687C5.88521 31.0648 5.78983 31.4029 5.78659 31.7482L5.67832 46.6125L5.56764 55.5965L5.43291 64.4987V64.3832V64.5829V64.4987V64.5781L5.45456 64.8187L5.50749 65.2999C5.54599 65.6247 5.5893 65.9543 5.63742 66.284C5.73366 66.9432 5.84674 67.6073 5.97426 68.2689C6.21486 69.5946 6.53726 70.9155 6.88854 72.2316C7.59227 74.8685 8.46587 77.4572 9.50386 79.9813C10.542 82.5181 11.7377 84.9874 13.084 87.375C13.7553 88.578 14.4747 89.7449 15.2253 90.895C15.976 92.0451 16.758 93.1831 17.5832 94.2874C18.4085 95.3918 19.2674 96.4697 20.1673 97.5235C21.0671 98.5773 22.0031 99.5927 22.9606 100.594C24.8936 102.595 26.9526 104.471 29.1248 106.209Z" fill="black"/>
<path d="M5.43296 64.5012L5.43056 64.5854L5.42334 64.3857L5.43296 64.5012Z" fill="black"/>
<path d="M89.6406 25.9592C90.1814 26.1692 90.6455 26.5388 90.9713 27.0188C91.297 27.4988 91.469 28.0666 91.4644 28.6468L91.332 46.61L91.2214 55.594L91.0842 64.5756V64.7272V64.7777L91.0457 65.1073L91.0072 65.4009L90.9254 65.9711C90.8653 66.3488 90.8027 66.7194 90.7329 67.0851C90.5982 67.8213 90.4442 68.5479 90.2782 69.2697C89.9446 70.7133 89.5588 72.1345 89.1209 73.5332C88.2447 76.3287 87.1805 79.0617 85.9354 81.7136C83.4611 87.0013 80.2713 91.9236 76.4557 96.3421C74.5637 98.5372 72.5217 100.598 70.3445 102.511C69.2521 103.457 68.143 104.381 66.9929 105.249C66.4275 105.694 65.8356 106.106 65.2582 106.534C64.6807 106.962 64.0888 107.369 63.4801 107.754C58.7061 110.894 53.553 113.417 48.1443 115.26C53.1969 112.688 58.0089 109.727 62.3397 106.197C64.513 104.46 66.572 102.584 68.5039 100.581C69.4663 99.5806 70.3982 98.5572 71.2996 97.5114C72.2011 96.4656 73.0624 95.3869 73.8837 94.2753C74.7089 93.171 75.4909 92.0377 76.2392 90.8829C76.9874 89.728 77.7092 88.5611 78.3805 87.3629C79.7276 84.9754 80.9241 82.506 81.9631 79.9692C82.9972 77.4469 83.8684 74.8607 84.5712 72.2267C84.92 70.913 85.2304 69.5801 85.483 68.264C85.6106 67.6024 85.7236 66.9383 85.8199 66.2791C85.8704 65.9494 85.9137 65.6198 85.9522 65.295L86.0027 64.8138L86.0244 64.5732V64.5034V64.578V64.3783V64.5034L85.8872 55.6012L85.7766 46.6172L85.6707 31.7529C85.6687 31.4071 85.5736 31.0681 85.3954 30.7718C85.2172 30.4754 84.9623 30.2325 84.6578 30.0687C84.1766 29.8088 83.701 29.5346 83.231 29.2458C81.9039 28.4197 80.6426 27.4922 79.4584 26.4717C78.2941 25.4661 77.1955 24.3868 76.1694 23.2405C75.6569 22.6726 75.1685 22.0808 74.6921 21.4769C74.4515 21.1737 74.2109 20.8657 73.992 20.5481L73.9198 20.4471L68.0203 18.6691L61.1439 16.5758C58.851 15.8781 56.5725 15.1563 54.2772 14.4417C53.1319 14.0856 51.9891 13.7247 50.8486 13.359L48.2309 12.5193C48.0163 12.4495 47.8371 12.2991 47.7312 12.0998C47.6253 11.9006 47.6009 11.668 47.6631 11.451L48.6255 8.227C48.6889 8.01202 48.833 7.82989 49.0276 7.71869C49.2222 7.60749 49.4523 7.57582 49.6697 7.63031L52.3163 8.35211C53.4808 8.65366 54.6397 8.96484 55.7929 9.28564C58.1027 9.92563 60.4149 10.556 62.7198 11.2104L69.6395 13.1689L76.5471 15.1659C77.1776 15.3495 77.7256 15.7446 78.099 16.2847L78.1712 16.3882L78.4118 16.7202L78.6764 17.11C78.8641 17.3506 79.059 17.6152 79.2611 17.8654C79.6605 18.3683 80.084 18.8567 80.5146 19.3403C81.3735 20.2973 82.2929 21.1982 83.2671 22.0375C84.2211 22.8648 85.2379 23.617 86.3083 24.2871C87.3461 24.9389 88.4443 25.4892 89.5877 25.9304L89.6406 25.9592Z" fill="#FCBE20"/>
<path d="M86.0412 64.3857L86.0316 64.5854V64.5109L86.0412 64.3857Z" fill="#FCBE20"/>
<path d="M43.6956 45.5563C45.6658 46.6161 47.3065 48.1976 48.4378 50.1277C49.5657 52.1336 50.1582 54.3961 50.1582 56.6973C50.1582 58.9985 49.5657 61.261 48.4378 63.2669C47.3074 65.1976 45.6665 66.7794 43.6956 67.8383C41.6129 68.9569 39.2793 69.5258 36.9155 69.4912C34.8272 69.5156 32.7588 69.0837 30.8547 68.2257C29.0716 67.4303 27.5064 66.2169 26.2918 64.6882C25.0772 63.1595 24.249 61.3605 23.8773 59.4437H21.3173V68.998H14.4698V44.3966H21.3173V53.5996H23.9639C24.381 51.7345 25.2353 49.9953 26.4566 48.5253C27.6831 47.0547 29.2338 45.8885 30.9871 45.1184C32.8582 44.2994 34.8827 43.8893 36.9251 43.9154C39.2845 43.8799 41.6142 44.4445 43.6956 45.5563ZM40.0866 62.8386C41.0388 62.2358 41.8096 61.386 42.3169 60.3797C42.86 59.2259 43.1415 57.9665 43.1415 56.6913C43.1415 55.4161 42.86 54.1567 42.3169 53.0029C41.8085 51.9973 41.0379 51.1477 40.0866 50.5439C39.138 49.9559 38.0411 49.6512 36.9251 49.6657C35.7986 49.6475 34.6902 49.95 33.7291 50.5379C32.768 51.1258 31.9939 51.9748 31.4971 52.986C30.9536 54.1461 30.6719 55.4114 30.6719 56.6925C30.6719 57.9735 30.9536 59.2389 31.4971 60.3989C31.9936 61.4102 32.7676 62.2593 33.7288 62.8468C34.6901 63.4344 35.7987 63.7361 36.9251 63.7168C38.0379 63.7305 39.1315 63.4258 40.077 62.8386H40.0866Z" fill="black"/>
<path d="M76.9923 44.3965V68.9858H70.1111V49.911H60.7662V68.9858H53.9163V44.3965H76.9923Z" fill="#FCBE20"/>
</svg>
