<svg width="114" height="114" viewBox="0 0 114 114" fill="none" xmlns="http://www.w3.org/2000/svg">
<g filter="url(#filter0_d)">
<circle cx="48" cy="49" r="41" fill="#9B1BFF"/>
</g>
<path d="M51.5424 30.6577H44.4576C37.0371 30.6577 31 36.6934 31 44.1125V50.4946C31 56.0196 34.395 60.985 39.5 63.0073V67.1447C39.5 67.4252 39.665 67.6788 39.9215 67.7921C40.0135 67.8332 40.1113 67.853 40.2083 67.853C40.3805 67.853 40.5512 67.79 40.6836 67.6695L44.7913 63.9494H51.5424C58.9629 63.9494 65 57.9137 65 50.4946V44.1125C65 36.6934 58.9629 30.6577 51.5424 30.6577ZM63.5833 50.4946C63.5833 57.1324 58.1823 62.5327 51.5424 62.5327H44.5178C44.3422 62.5327 44.1729 62.5979 44.0425 62.7162L40.9167 65.5474V62.5164C40.9167 62.2161 40.7275 61.9483 40.4442 61.8492C35.6431 60.1513 32.4167 55.5882 32.4167 50.4946V44.1125C32.4167 37.4747 37.8184 32.0744 44.4576 32.0744H51.5424C58.1823 32.0744 63.5833 37.4747 63.5833 44.1125V50.4946Z" fill="white"/>
<path d="M57.3613 52.2571L53.0079 49.4294C52.5319 49.1199 51.9652 49.0151 51.4106 49.1298C50.8552 49.2467 50.3778 49.5746 50.0683 50.0528L49.8636 50.3673C47.9794 49.7446 45.9019 48.9492 44.658 45.3487L45.173 44.9011C46.057 44.1325 46.1498 42.7881 45.3812 41.9027L41.9756 37.9849C41.7192 37.6895 41.2715 37.6591 40.9761 37.9148L38.8377 39.7734C36.962 41.404 37.8382 43.8159 38.1265 44.6085C38.1392 44.6439 38.1548 44.6779 38.1732 44.7112C38.2476 44.8444 40.0234 48.0135 42.8915 50.9346C45.7708 53.8679 50.9693 56.5765 51.1287 56.6551C51.7222 57.0405 52.3902 57.2254 53.0511 57.2254C54.2113 57.2254 55.3489 56.6566 56.0275 55.6139L57.5702 53.2381C57.7827 52.9088 57.6892 52.4703 57.3613 52.2571ZM54.8389 54.8418C54.2007 55.825 52.8818 56.1041 51.8405 55.4326C51.7888 55.4056 46.6244 52.7161 43.9022 49.943C41.3579 47.3512 39.6685 44.4718 39.4383 44.0702C38.8773 42.497 38.9765 41.5301 39.767 40.843L41.3714 39.449L44.3124 42.832C44.5737 43.1324 44.5433 43.5715 44.2444 43.8315L43.3752 44.5866C43.1635 44.7707 43.0799 45.0619 43.1627 45.3296C44.6446 50.1448 47.5261 51.0905 49.6298 51.7811L49.9365 51.8824C50.2432 51.9858 50.579 51.8675 50.7547 51.5969L51.2569 50.8234C51.3603 50.6634 51.519 50.555 51.7031 50.516C51.888 50.4764 52.0764 50.5132 52.2365 50.6173L55.9963 53.0589L54.8389 54.8418Z" fill="white"/>
<path d="M49.6171 42.1662C49.2403 42.0578 48.8486 42.2767 48.7416 42.6535C48.6346 43.0296 48.8528 43.4213 49.2289 43.5283C50.2844 43.8286 51.1251 44.6708 51.4226 45.727C51.5105 46.0386 51.7945 46.2433 52.1041 46.2433C52.1678 46.2433 52.2323 46.2348 52.2967 46.2171C52.6729 46.1109 52.8924 45.7199 52.7862 45.343C52.3562 43.8173 51.1414 42.5997 49.6171 42.1662Z" fill="white"/>
<path d="M55.0076 46.3964C55.0713 46.3964 55.1358 46.3879 55.2002 46.3701C55.5771 46.2639 55.7959 45.8722 55.6897 45.4961C54.8538 42.5331 52.4958 40.1701 49.535 39.3272C49.1588 39.2188 48.7671 39.4391 48.6602 39.8152C48.5532 40.1914 48.7714 40.5831 49.1475 40.69C51.6387 41.3984 53.6228 43.3881 54.3261 45.8807C54.4147 46.1924 54.698 46.3964 55.0076 46.3964Z" fill="white"/>
<path d="M49.2297 36.0282C48.8529 35.9199 48.4612 36.1387 48.3542 36.5163C48.2473 36.8924 48.4654 37.2841 48.8415 37.3911C53.0625 38.5917 56.425 41.9619 57.6164 46.1857C57.7042 46.4974 57.9883 46.7021 58.2978 46.7021C58.3615 46.7021 58.426 46.6936 58.4905 46.6759C58.8666 46.5696 59.0862 46.1779 58.9799 45.8018C57.656 41.1077 53.9203 37.3634 49.2297 36.0282Z" fill="white"/>
<defs>
<filter id="filter0_d" x="0" y="0" width="114" height="114" filterUnits="userSpaceOnUse" color-interpolation-filters="sRGB">
<feFlood flood-opacity="0" result="BackgroundImageFix"/>
<feColorMatrix in="SourceAlpha" type="matrix" values="0 0 0 0 0 0 0 0 0 0 0 0 0 0 0 0 0 0 127 0"/>
<feOffset dx="9" dy="8"/>
<feGaussianBlur stdDeviation="8"/>
<feColorMatrix type="matrix" values="0 0 0 0 0 0 0 0 0 0 0 0 0 0 0 0 0 0 0.11 0"/>
<feBlend mode="normal" in2="BackgroundImageFix" result="effect1_dropShadow"/>
<feBlend mode="normal" in="SourceGraphic" in2="effect1_dropShadow" result="shape"/>
</filter>
</defs>
</svg>
