<svg width="114" height="114" viewBox="0 0 114 114" fill="none" xmlns="http://www.w3.org/2000/svg">
<g filter="url(#filter0_d)">
<circle cx="48" cy="49" r="41" fill="#00D1FF"/>
</g>
<path d="M32.5523 49.1109L40.3778 52.8711C40.6805 53.015 41.0378 53.0048 41.3272 52.8415L48.2927 48.9373L44.0766 52.5394C43.8619 52.7232 43.7392 52.9855 43.7392 53.2619V62.0357C43.7392 62.9613 44.9646 63.3508 45.5393 62.6155L48.9221 58.2793L57.2876 62.8726C57.8743 63.1978 58.6263 62.8713 58.7623 62.2246L63.9798 37.1566C64.1358 36.4033 63.3585 35.7888 62.6358 36.0691L32.6349 47.3497C31.8296 47.6531 31.7776 48.7393 32.5523 49.1109ZM61.6598 38.5065L57.0743 60.5367L49.1474 56.1839C48.7154 55.9461 48.1594 56.0515 47.8527 56.4423L45.7393 59.1509V53.6951L57.141 43.9559C58.0437 43.1858 57.0063 41.8167 55.9756 42.4004L40.7885 50.9132L35.4657 48.3563L61.6598 38.5065Z" fill="white"/>
<defs>
<filter id="filter0_d" x="0" y="0" width="114" height="114" filterUnits="userSpaceOnUse" color-interpolation-filters="sRGB">
<feFlood flood-opacity="0" result="BackgroundImageFix"/>
<feColorMatrix in="SourceAlpha" type="matrix" values="0 0 0 0 0 0 0 0 0 0 0 0 0 0 0 0 0 0 127 0"/>
<feOffset dx="9" dy="8"/>
<feGaussianBlur stdDeviation="8"/>
<feColorMatrix type="matrix" values="0 0 0 0 0 0 0 0 0 0 0 0 0 0 0 0 0 0 0.11 0"/>
<feBlend mode="normal" in2="BackgroundImageFix" result="effect1_dropShadow"/>
<feBlend mode="normal" in="SourceGraphic" in2="effect1_dropShadow" result="shape"/>
</filter>
</defs>
</svg>
