<svg width="114" height="114" viewBox="0 0 114 114" fill="none" xmlns="http://www.w3.org/2000/svg">
<g filter="url(#filter0_d)">
<circle cx="53" cy="53" r="41" fill="white"/>
<path d="M53.0383 51.4563C55.9567 51.4563 58.3309 49.0821 58.3309 46.1638C58.3309 43.2456 55.9567 40.8713 53.0383 40.8713C50.1199 40.8713 47.7456 43.2456 47.7456 46.1638C47.7456 49.0821 50.1198 51.4563 53.0383 51.4563ZM53.0383 42.7693C54.9101 42.7693 56.433 44.2921 56.433 46.1639C56.433 48.0357 54.9101 49.5585 53.0383 49.5585C51.1664 49.5585 49.6435 48.0357 49.6435 46.1639C49.6435 44.292 51.1664 42.7693 53.0383 42.7693Z" fill="black"/>
<path d="M69.127 63.7033L66.9579 53.5809C66.7312 52.5229 66.1429 51.5655 65.3014 50.8852C64.4599 50.2049 63.4006 49.8303 62.3185 49.8303H61.3644C61.848 48.7488 62.1163 47.5911 62.1483 46.4175C62.1915 44.839 61.8137 43.2584 61.0557 41.8466C60.2979 40.4349 59.1892 39.2466 57.8497 38.4103C56.4254 37.5208 54.7616 37.0508 53.0381 37.0508C51.3147 37.0508 49.6509 37.5208 48.2265 38.4102C46.887 39.2465 45.7784 40.4348 45.0205 41.8466C44.2627 43.2583 43.8849 44.8389 43.928 46.4175C43.96 47.5911 44.2284 48.7488 44.7119 49.8303H43.7578C42.6758 49.8303 41.6164 50.2049 40.7749 50.8852C39.9333 51.5655 39.3451 52.5229 39.1184 53.5809L36.9493 63.7033C36.6476 65.1111 36.9937 66.5608 37.8989 67.6805C38.8041 68.8002 40.149 69.4424 41.5888 69.4424H64.4875C65.9273 69.4424 67.2722 68.8002 68.1774 67.6805C69.0825 66.5609 69.4287 65.1112 69.127 63.7033ZM46.6928 42.7443C47.9686 40.3676 50.3407 38.9487 53.0382 38.9487C55.7356 38.9487 58.1077 40.3676 59.3836 42.7443C60.6594 45.121 60.5313 47.8821 59.0407 50.1303L53.0382 59.1842L47.0356 50.1303C45.5451 47.8821 45.4169 45.121 46.6928 42.7443ZM46.9067 63.7485L48.5392 60.0754L52.0892 61.5371V63.7485H46.9067ZM42.826 63.7485L44.0124 58.2114L46.7836 59.3525L44.8298 63.7485H42.826ZM50.5362 58.8451L44.4164 56.3252L44.5881 55.5239L48.3342 55.5239L50.5362 58.8451ZM53.9871 61.5371L56.9846 60.3029L61.5778 63.7485H53.9871V61.5371ZM59.0265 59.4621L62.0639 58.2114L62.9649 62.4166L59.0265 59.4621ZM55.5401 58.8451L57.7419 55.5241L61.4881 55.5241L61.6597 56.3252L55.5401 58.8451ZM66.7014 66.4873C66.1583 67.1592 65.3514 67.5444 64.4875 67.5444H41.5888C40.725 67.5444 39.918 67.1592 39.3749 66.4873C38.8319 65.8155 38.6242 64.9458 38.8052 64.1011L40.9742 53.9787C41.2536 52.6747 42.4243 51.7282 43.7578 51.7282H45.8178L47.0759 53.6259L43.821 53.6259C43.3735 53.6259 42.9868 53.9384 42.8931 54.376L40.7243 64.4987C40.6642 64.7789 40.734 65.0712 40.9142 65.2941C41.0944 65.517 41.3656 65.6465 41.6522 65.6465H45.4411C45.4427 65.6465 45.4443 65.6467 45.4459 65.6467C45.4482 65.6467 45.4505 65.6465 45.4528 65.6465H64.4241C64.7107 65.6465 64.9819 65.517 65.162 65.2941C65.3422 65.0713 65.412 64.7789 65.352 64.4987L63.1831 54.3763C63.0895 53.9388 62.7027 53.6262 62.2552 53.6262L59.0002 53.6261L60.2585 51.7282H62.3185C63.6521 51.7282 64.8228 52.6747 65.1022 53.9786L67.2713 64.101C67.4522 64.9457 67.2445 65.8155 66.7014 66.4873Z" fill="black"/>
</g>
<defs>
<filter id="filter0_d" x="0" y="0" width="114" height="114" filterUnits="userSpaceOnUse" color-interpolation-filters="sRGB">
<feFlood flood-opacity="0" result="BackgroundImageFix"/>
<feColorMatrix in="SourceAlpha" type="matrix" values="0 0 0 0 0 0 0 0 0 0 0 0 0 0 0 0 0 0 127 0"/>
<feOffset dx="4" dy="4"/>
<feGaussianBlur stdDeviation="8"/>
<feColorMatrix type="matrix" values="0 0 0 0 0 0 0 0 0 0 0 0 0 0 0 0 0 0 0.18 0"/>
<feBlend mode="normal" in2="BackgroundImageFix" result="effect1_dropShadow"/>
<feBlend mode="normal" in="SourceGraphic" in2="effect1_dropShadow" result="shape"/>
</filter>
</defs>
</svg>
