<svg width="114" height="114" viewBox="0 0 114 114" fill="none" xmlns="http://www.w3.org/2000/svg">
<g filter="url(#filter0_d)">
<circle cx="53" cy="53" r="41" fill="white"/>
<path d="M68.609 45.736V43.8541C68.609 42.3449 67.381 41.1171 65.8718 41.1171H52.3411C51.9933 41.1171 51.6806 40.9239 51.525 40.6128L50.7091 38.9808C50.2425 38.0475 49.3044 37.4678 48.261 37.4678H40.2044C38.6952 37.4678 37.4675 38.6956 37.4673 40.2047L37.4673 60.4421C37.4673 61.9291 38.6621 63.1285 40.1515 63.1285L46.6518 63.1284V65.8714C46.6518 67.3806 47.8797 68.6084 49.3888 68.6084H56.6877C58.1969 68.6084 59.4247 67.3806 59.4247 65.8714V63.1345H65.8717H65.8721C67.3812 63.1344 68.6089 61.9066 68.6089 60.3975V45.7431C68.6089 45.7418 68.6091 45.7407 68.6091 45.7395C68.6091 45.7384 68.609 45.7372 68.609 45.736ZM57.6 65.8715C57.6 66.3746 57.1907 66.7838 56.6877 66.7838H49.3889C48.8858 66.7838 48.4765 66.3746 48.4765 65.8715V60.3975C48.4765 59.8945 48.8858 59.4852 49.3889 59.4852H56.6877C57.1907 59.4852 57.6 59.8945 57.6 60.3975V65.8715ZM50.3013 57.6606V54.8628C50.3013 53.3536 51.5291 52.1258 53.0383 52.1258C54.5475 52.1258 55.7753 53.3536 55.7753 54.8628V57.6606H50.3013ZM66.7842 60.3975C66.7842 60.8724 66.4153 61.3099 65.8351 61.3099H59.4247V60.3975C59.4247 59.2081 58.6619 58.1941 57.6 57.8175V54.8628C57.6 52.3475 55.5536 50.3012 53.0382 50.3012C50.5229 50.3012 48.4765 52.3475 48.4765 54.8628V57.8175C47.4146 58.1941 46.6518 59.2082 46.6518 60.3975V61.3099L40.1514 61.3099C39.674 61.3099 39.2919 60.924 39.2919 60.4421L39.292 46.6519H66.7842V60.3975ZM66.7842 44.8272H39.2921V40.2048C39.2921 39.7017 39.7013 39.2924 40.2045 39.2924H48.261C48.6088 39.2924 48.9215 39.4856 49.0771 39.7967L49.8931 41.4288C50.3598 42.362 51.2979 42.9417 52.3412 42.9417H65.8718C66.3749 42.9417 66.7844 43.351 66.7844 43.8541V44.8272H66.7842Z" fill="black"/>
<path d="M50.8486 61.3103C50.3448 61.3103 49.9363 61.7184 49.9363 62.2217V64.0444C49.9363 64.5478 50.3448 64.9558 50.8486 64.9558C51.3525 64.9558 51.761 64.5478 51.761 64.0444V62.2217C51.761 61.7184 51.3525 61.3103 50.8486 61.3103Z" fill="white"/>
<path d="M61.8576 48.4771H58.1474C57.6435 48.4771 57.235 48.8849 57.235 49.3881C57.235 49.8912 57.6435 50.2991 58.1474 50.2991H61.8576C62.3615 50.2991 62.77 49.8912 62.77 49.3881C62.77 48.8849 62.3615 48.4771 61.8576 48.4771Z" fill="white"/>
<path d="M61.8576 52.127H58.1474C57.6435 52.127 57.235 52.5346 57.235 53.0375C57.235 53.5403 57.6435 53.948 58.1474 53.948H61.8576C62.3615 53.948 62.77 53.5403 62.77 53.0375C62.77 52.5346 62.3615 52.127 61.8576 52.127Z" fill="white"/>
</g>
<defs>
<filter id="filter0_d" x="0" y="0" width="114" height="114" filterUnits="userSpaceOnUse" color-interpolation-filters="sRGB">
<feFlood flood-opacity="0" result="BackgroundImageFix"/>
<feColorMatrix in="SourceAlpha" type="matrix" values="0 0 0 0 0 0 0 0 0 0 0 0 0 0 0 0 0 0 127 0"/>
<feOffset dx="4" dy="4"/>
<feGaussianBlur stdDeviation="8"/>
<feColorMatrix type="matrix" values="0 0 0 0 0 0 0 0 0 0 0 0 0 0 0 0 0 0 0.18 0"/>
<feBlend mode="normal" in2="BackgroundImageFix" result="effect1_dropShadow"/>
<feBlend mode="normal" in="SourceGraphic" in2="effect1_dropShadow" result="shape"/>
</filter>
</defs>
</svg>
