<svg width="114" height="114" viewBox="0 0 114 114" fill="none" xmlns="http://www.w3.org/2000/svg">
<g filter="url(#filter0_d)">
<circle cx="53" cy="53" r="41" fill="white"/>
<path d="M69.8459 37.323H36.2303C35.5342 37.323 34.9697 37.8873 34.9697 38.5835C34.9697 39.1933 34.9697 66.5754 34.9697 67.5144C34.9697 68.2106 35.5342 68.7749 36.2303 68.7749H69.8459C70.5421 68.7749 71.1064 68.2105 71.1064 67.5144C71.1064 66.5745 71.1064 39.1926 71.1064 38.5835C71.1064 37.8873 70.542 37.323 69.8459 37.323ZM68.5853 66.2537H37.4909V63.6581H68.5853V66.2537ZM68.5853 61.137H37.4909V58.5414H68.5853V61.137ZM68.5853 56.0203H37.4909V39.8441H68.5853V56.0203Z" fill="black"/>
<path d="M53.0382 44.3281C51.0511 44.3281 49.4346 45.9446 49.4346 47.9316C49.4346 49.9186 51.0511 51.5352 53.0382 51.5352C55.0253 51.5352 56.6418 49.9186 56.6418 47.9317C56.6418 45.9447 55.0253 44.3281 53.0382 44.3281ZM53.0382 49.0141C52.4414 49.0141 51.9558 48.5285 51.9558 47.9317C51.9558 47.3349 52.4414 46.8493 53.0382 46.8493C53.635 46.8493 54.1206 47.3349 54.1206 47.9317C54.1206 48.5285 53.635 49.0141 53.0382 49.0141Z" fill="black"/>
<path d="M46.409 46.6721H44.5186C43.8224 46.6721 43.2581 47.2359 43.2581 47.9312C43.2581 48.6265 43.8225 49.1902 44.5186 49.1902H46.409C47.1052 49.1902 47.6696 48.6264 47.6696 47.9312C47.6696 47.2359 47.1052 46.6721 46.409 46.6721Z" fill="black"/>
<path d="M61.558 46.6721H59.6675C58.9713 46.6721 58.407 47.2359 58.407 47.9312C58.407 48.6265 58.9714 49.1902 59.6675 49.1902H61.558C62.2542 49.1902 62.8186 48.6264 62.8186 47.9312C62.8186 47.2359 62.2542 46.6721 61.558 46.6721Z" fill="black"/>
<path d="M66.7354 44.2107L64.2194 41.6947C63.983 41.4583 63.6624 41.3254 63.3281 41.3254H42.7483C42.4139 41.3254 42.0933 41.4583 41.857 41.6947L39.341 44.2106C39.1046 44.4469 38.9717 44.7676 38.9717 45.1019V50.7631C38.9717 51.0974 39.1044 51.418 39.341 51.6544L41.857 54.1703C42.0933 54.4067 42.414 54.5396 42.7483 54.5396H63.3281C63.6625 54.5396 63.9831 54.4067 64.2194 54.1703L66.7355 51.6544C66.9718 51.4181 67.1047 51.0974 67.1047 50.7631V45.1019C67.1047 44.7677 66.9719 44.4471 66.7354 44.2107ZM62.8059 52.0187H43.2703L41.4927 50.2411V45.6241L43.2703 43.8465H62.8058L64.5834 45.6241V50.2411H64.5835L62.8059 52.0187Z" fill="black"/>
</g>
<defs>
<filter id="filter0_d" x="0" y="0" width="114" height="114" filterUnits="userSpaceOnUse" color-interpolation-filters="sRGB">
<feFlood flood-opacity="0" result="BackgroundImageFix"/>
<feColorMatrix in="SourceAlpha" type="matrix" values="0 0 0 0 0 0 0 0 0 0 0 0 0 0 0 0 0 0 127 0"/>
<feOffset dx="4" dy="4"/>
<feGaussianBlur stdDeviation="8"/>
<feColorMatrix type="matrix" values="0 0 0 0 0 0 0 0 0 0 0 0 0 0 0 0 0 0 0.18 0"/>
<feBlend mode="normal" in2="BackgroundImageFix" result="effect1_dropShadow"/>
<feBlend mode="normal" in="SourceGraphic" in2="effect1_dropShadow" result="shape"/>
</filter>
</defs>
</svg>
