<svg width="100" height="84" viewBox="0 0 100 84" fill="none" xmlns="http://www.w3.org/2000/svg">
<path d="M1.71814 40.7894L26.0643 52.4878C27.006 52.9357 28.1177 52.9037 29.0179 52.3958L50.6884 40.2494L37.5716 51.4559C36.9037 52.0278 36.5221 52.8437 36.5221 53.7036V80.9999C36.5221 83.8795 40.3343 85.0913 42.1222 82.8036L52.6464 69.3135L78.6726 83.6035C80.4979 84.6154 82.8375 83.5995 83.2606 81.5878L99.4928 3.59843C99.9781 1.25475 97.5597 -0.656994 95.3113 0.214887L1.97533 35.3101C-0.530225 36.254 -0.692007 39.6335 1.71814 40.7894ZM92.2748 7.79785L78.0089 76.3365L53.3475 62.7944C52.0034 62.0545 50.2736 62.3824 49.3195 63.5983L42.7445 72.0251V55.0514L78.2163 24.7515C81.0247 22.3559 77.7973 18.0964 74.5907 19.9122L27.342 46.3966L10.7821 38.4417L92.2748 7.79785Z" fill="white"/>
</svg>
