<svg width="32" height="27" viewBox="0 0 32 27" fill="none" xmlns="http://www.w3.org/2000/svg">
<path d="M0.552258 13.1109L8.37782 16.8711C8.68049 17.015 9.03783 17.0048 9.32718 16.8415L16.2927 12.9373L12.0766 16.5394C11.8619 16.7232 11.7392 16.9855 11.7392 17.2619V26.0357C11.7392 26.9613 12.9646 27.3508 13.5393 26.6155L16.9221 22.2793L25.2876 26.8726C25.8743 27.1978 26.6263 26.8713 26.7623 26.2246L31.9798 1.15664C32.1358 0.403311 31.3585 -0.211177 30.6358 0.0690708L0.634927 11.3497C-0.17043 11.6531 -0.222431 12.7393 0.552258 13.1109ZM29.6598 2.50645L25.0743 24.5367L17.1474 20.1839C16.7154 19.9461 16.1594 20.0515 15.8527 20.4423L13.7393 23.1509V17.6951L25.141 7.95585C26.0437 7.18581 25.0063 5.81672 23.9756 6.40035L8.78849 14.9132L3.46567 12.3563L29.6598 2.50645Z" fill="white"/>
</svg>
