<svg width="34" height="38" viewBox="0 0 34 38" fill="none" xmlns="http://www.w3.org/2000/svg">
<path d="M20.5424 0.657715H13.4576C6.03713 0.657715 0 6.69342 0 14.1125V20.4946C0 26.0196 3.39504 30.985 8.5 33.0073V37.1447C8.5 37.4252 8.66504 37.6788 8.92146 37.7921C9.01354 37.8332 9.11129 37.853 9.20833 37.853C9.38046 37.853 9.55117 37.79 9.68362 37.6695L13.7913 33.9494H20.5424C27.9629 33.9494 34 27.9137 34 20.4946V14.1125C34 6.69342 27.9629 0.657715 20.5424 0.657715ZM32.5833 20.4946C32.5833 27.1324 27.1823 32.5327 20.5424 32.5327H13.5178C13.3422 32.5327 13.1729 32.5979 13.0425 32.7162L9.91667 35.5474V32.5164C9.91667 32.2161 9.72754 31.9483 9.44421 31.8492C4.64313 30.1513 1.41667 25.5882 1.41667 20.4946V14.1125C1.41667 7.47472 6.81842 2.07438 13.4576 2.07438H20.5424C27.1823 2.07438 32.5833 7.47472 32.5833 14.1125V20.4946Z" fill="white"/>
<path d="M26.3613 22.2571L22.0079 19.4294C21.5319 19.1199 20.9652 19.0151 20.4106 19.1298C19.8552 19.2467 19.3778 19.5746 19.0683 20.0528L18.8636 20.3673C16.9794 19.7446 14.9019 18.9492 13.658 15.3487L14.173 14.9011C15.057 14.1325 15.1498 12.7881 14.3812 11.9027L10.9756 7.98489C10.7192 7.68952 10.2715 7.65906 9.97612 7.91477L7.83766 9.77344C5.96199 11.404 6.8382 13.8159 7.12649 14.6085C7.13924 14.6439 7.15483 14.6779 7.17324 14.7112C7.24762 14.8444 9.02341 18.0135 11.8915 20.9346C14.7708 23.8679 19.9693 26.5765 20.1287 26.6551C20.7222 27.0405 21.3902 27.2254 22.0511 27.2254C23.2113 27.2254 24.3489 26.6566 25.0275 25.6139L26.5702 23.2381C26.7827 22.9088 26.6892 22.4703 26.3613 22.2571ZM23.8389 24.8418C23.2007 25.825 21.8818 26.1041 20.8405 25.4326C20.7888 25.4056 15.6244 22.7161 12.9022 19.943C10.3579 17.3512 8.66853 14.4718 8.43833 14.0702C7.87733 12.497 7.97649 11.5301 8.76699 10.843L10.3714 9.44902L13.3124 12.832C13.5737 13.1324 13.5433 13.5715 13.2444 13.8315L12.3752 14.5866C12.1635 14.7707 12.0799 15.0619 12.1627 15.3296C13.6446 20.1448 16.5261 21.0905 18.6298 21.7811L18.9365 21.8824C19.2432 21.9858 19.579 21.8675 19.7547 21.5969L20.2569 20.8234C20.3603 20.6634 20.519 20.555 20.7031 20.516C20.888 20.4764 21.0764 20.5132 21.2365 20.6173L24.9963 23.0589L23.8389 24.8418Z" fill="white"/>
<path d="M18.6171 12.1662C18.2403 12.0578 17.8486 12.2767 17.7416 12.6535C17.6346 13.0296 17.8528 13.4213 18.2289 13.5283C19.2844 13.8286 20.1251 14.6708 20.4226 15.727C20.5105 16.0386 20.7945 16.2433 21.1041 16.2433C21.1678 16.2433 21.2323 16.2348 21.2967 16.2171C21.6729 16.1109 21.8924 15.7199 21.7862 15.343C21.3562 13.8173 20.1414 12.5997 18.6171 12.1662Z" fill="white"/>
<path d="M24.0076 16.3964C24.0713 16.3964 24.1358 16.3879 24.2002 16.3701C24.5771 16.2639 24.7959 15.8722 24.6897 15.4961C23.8538 12.5331 21.4958 10.1701 18.535 9.32719C18.1588 9.21882 17.7671 9.43911 17.6602 9.81523C17.5532 10.1914 17.7714 10.5831 18.1475 10.69C20.6387 11.3984 22.6228 13.3881 23.3261 15.8807C23.4147 16.1924 23.698 16.3964 24.0076 16.3964Z" fill="white"/>
<path d="M18.2297 6.02823C17.8529 5.91985 17.4612 6.13873 17.3542 6.51627C17.2473 6.89239 17.4654 7.2841 17.8415 7.39106C22.0625 8.59168 25.425 11.9619 26.6164 16.1857C26.7042 16.4974 26.9883 16.7021 27.2978 16.7021C27.3615 16.7021 27.426 16.6936 27.4905 16.6759C27.8666 16.5696 28.0862 16.1779 27.9799 15.8018C26.656 11.1077 22.9203 7.36343 18.2297 6.02823Z" fill="white"/>
</svg>
